solid manifold
  facet normal 0.00000000e+00 0.00000000e+00 1.00000000e+00
    outer loop
      vertex 0 0 0
      vertex 1 0 0
      vertex 1 0.2 0
    endloop
  endfacet
  facet normal 0.00000000e+00 0.00000000e+00 1.00000000e+00
    outer loop
      vertex 0 0 0
      vertex 1 0.2 0
      vertex 0 0.2 0
    endloop
  endfacet
  facet normal 0.00000000e+00 0.00000000e+00 -1.00000000e+00
    outer loop
      vertex 0 0 0.1
      vertex 0 0.2 0.1
      vertex 1 0.2 0.1
    endloop
  endfacet
  facet normal 0.00000000e+00 0.00000000e+00 -1.00000000e+00
    outer loop
      vertex 0 0 0.1
      vertex 1 0.2 0.1
      vertex 1 0 0.1
    endloop
  endfacet
  facet normal 1.00000000e+00 0.00000000e+00 0.00000000e+00
    outer loop
      vertex 0 0 0
      vertex 0 0.2 0
      vertex 0 0.2 0.1
    endloop
  endfacet
  facet normal 1.00000000e+00 0.00000000e+00 0.00000000e+00
    outer loop
      vertex 0 0 0
      vertex 0 0.2 0.1
      vertex 0 0 0.1
    endloop
  endfacet
  facet normal -1.00000000e+00 0.00000000e+00 0.00000000e+00
    outer loop
      vertex 1 0 0
      vertex 1 0 0.1
      vertex 1 0.2 0.1
    endloop
  endfacet
  facet normal -1.00000000e+00 0.00000000e+00 0.00000000e+00
    outer loop
      vertex 1 0 0
      vertex 1 0.2 0.1
      vertex 1 0.2 0
    endloop
  endfacet
  facet normal 0.00000000e+00 1.00000000e+00 0.00000000e+00
    outer loop
      vertex 0 0 0
      vertex 0 0 0.1
      vertex 1 0 0.1
    endloop
  endfacet
  facet normal 0.00000000e+00 1.00000000e+00 0.00000000e+00
    outer loop
      vertex 0 0 0
      vertex 1 0 0.1
      vertex 1 0 0
    endloop
  endfacet
  facet normal 0.00000000e+00 -1.00000000e+00 0.00000000e+00
    outer loop
      vertex 0 0.2 0
      vertex 1 0.2 0
      vertex 1 0.2 0.1
    endloop
  endfacet
  facet normal 0.00000000e+00 -1.00000000e+00 0.00000000e+00
    outer loop
      vertex 0 0.2 0
      vertex 1 0.2 0.1
      vertex 0 0.2 0.1
    endloop
  endfacet
endsolid manifold
